<?xml version="1.0" encoding="utf-8"?>
<!-- Generator: Adobe Illustrator 17.0.2, SVG Export Plug-In . SVG Version: 6.00 Build 0)  -->
<!DOCTYPE svg PUBLIC "-//W3C//DTD SVG 1.1//EN" "http://www.w3.org/Graphics/SVG/1.1/DTD/svg11.dtd">
<svg version="1.1" id="Layer_1" xmlns="http://www.w3.org/2000/svg" xmlns:xlink="http://www.w3.org/1999/xlink" x="0px" y="0px"
	 width="680px" height="340px" viewBox="0 0 680 340" enable-background="new 0 0 680 340" xml:space="preserve">
<path fill="#D4D9DD" d="M170,50c66,0,120,54,120,120s-54,120-120,120S50,236,50,170S104,50,170,50 M170,0C76,0,0,76,0,170
	s76,170,170,170s170-76,170-170S264,0,170,0L170,0z M170,260c-14,0-25-11-25-24v-66c0-14,11-24,25-24s25,11,25,24v66
	C195,249,183,260,170,260z M170,80c13.255,0,24,10.298,24,23s-10.745,23-24,23s-24-10.298-24-23S156.745,80,170,80z"/>
<path fill="#FFFFFF" d="M510,50c66,0,120,54,120,120s-54,120-120,120s-120-54-120-120S444,50,510,50 M510,0c-94,0-170,76-170,170
	s76,170,170,170s170-76,170-170S604,0,510,0L510,0z M510,260c-14,0-25-11-25-24v-66c0-14,11-24,25-24s25,11,25,24v66
	C535,249,523,260,510,260z M510,80c13.255,0,24,10.298,24,23s-10.745,23-24,23s-24-10.298-24-23S496.745,80,510,80z"/>
</svg>
